<svg width="81" height="81" viewBox="0 0 81 81" fill="none" xmlns="http://www.w3.org/2000/svg">
<path d="M10.3027 69.3469C9.55972 69.0924 8.77928 68.9672 7.99471 68.9766C3.82532 68.9766 1.1592 71.5023 1.0752 75.6255C1.0752 77.4774 1.99043 78.825 3.3257 78.825C3.64922 78.8286 3.97043 78.7695 4.27189 78.651C4.13908 78.2451 4.07335 77.82 4.07734 77.3926C4.0521 76.9157 4.13679 76.4394 4.32475 76.0012C4.51271 75.5629 4.79881 75.1747 5.16058 74.8669L5.73979 75.4559C5.45721 75.6841 5.23445 75.9788 5.09107 76.3141C4.94768 76.6494 4.88805 77.0152 4.91741 77.3792C4.90162 77.936 5.04431 78.4858 5.3286 78.9633C5.49672 79.2339 5.73212 79.4554 6.01136 79.6057C6.29061 79.756 6.60398 79.8299 6.92031 79.8201C7.50394 79.8201 8.66235 79.6282 9.28135 78.8964C8.96441 78.3026 8.81169 77.6336 8.83921 76.9597C8.81447 76.318 8.98916 75.6845 9.33883 75.148L10.1701 75.4024C9.83849 75.8672 9.66338 76.4271 9.67044 76.9999C9.67044 78.4278 10.3381 79.2712 11.5053 79.2712C13.2739 79.2712 14.2554 78.0084 14.2554 75.9066C14.2466 73.3631 13.2031 70.3777 10.3027 69.3469Z" fill="white"/>
<path d="M22.7497 28.7655C21.4985 26.8288 25.9995 23.6337 27.5868 25.7355C29.5012 24.4771 32.5874 23.4642 32.5874 26.5789C32.5521 28.1127 32.4266 29.643 32.2116 31.1617C32.0745 32.5718 32.2116 33.2858 33.622 33.5C33.7325 33.4019 33.8431 33.3081 33.9624 33.2144C35.2889 32.2059 37.2564 31.7731 38.0036 33.0582C38.9586 34.7406 36.549 36.5523 34.6699 36.7442C34.0818 45.4948 41.585 50.1312 50.587 52.2241C49.8353 61.5638 51.4182 69.6273 61.0038 69.6273C63.0819 69.6273 65.5358 68.4715 67.353 66.0886C66.5439 65.1203 65.7171 64.2144 64.846 63.3398C63.7849 62.2689 62.6574 61.238 61.4239 60.2162C60.8765 57.5249 59.8983 54.9415 58.5278 52.5677C57.1218 52.3044 55.9148 51.3673 54.9907 49.9483L55.8264 49.444C56.7107 51.0639 57.8204 51.7466 59.169 51.7957H59.3237C65.9956 51.7957 79.251 34.1292 79.251 25.209C79.251 21.2553 77.4161 19.8229 72.7471 19.8229C66.367 19.8229 58.1874 25.5124 53.6643 29.2295C53.8942 29.5598 54.1064 29.9034 54.3231 30.2559L53.5714 30.7021C52.7594 29.3003 51.7122 28.0516 50.4764 27.0118C49.2859 26.0196 47.9683 25.1941 46.5591 24.5575L46.9747 23.7185C48.3587 24.3796 49.6578 25.2083 50.8434 26.1862C52.8286 21.0143 53.8942 15.606 53.8942 11.2641C53.8942 4.78474 51.8073 1.08545 47.9739 1.08545C41.0544 1.08545 33.6353 11.9379 30.6331 20.7734L30.3855 21.0233C24.9295 22.5048 20.6584 25.1867 17.7535 28.9216C17.7187 28.9613 17.6862 29.003 17.6562 29.0466C18.4601 29.2903 19.2931 29.4224 20.1322 29.4393C20.9988 29.4393 22.2501 29.2697 22.7497 28.7655ZM52.2627 37.0119C54.7132 34.5595 57.5375 32.5196 60.628 30.9699C62.6166 30.0164 64.7519 29.4128 66.9418 29.1849C68.4451 29.0154 69.5947 29.1001 70.2756 29.774C71.3632 30.7021 70.9432 32.3844 69.8599 34.9057C67.8615 39.6179 62.7857 44.5801 58.939 46.4319C55.0128 48.0295 50.1758 39.7875 52.2627 37.0119Z" fill="#E1A149"/>
<path d="M58.93 46.4322C62.7634 44.5803 67.8525 39.6181 69.8509 34.9059C70.9342 32.3846 71.3542 30.7023 70.2666 29.7742L69.6829 30.3632C69.5879 30.2688 69.4752 30.1945 69.3513 30.1445C68.5661 29.9104 67.7365 29.8706 66.9328 30.0285C65.0698 30.2406 63.2495 30.7371 61.5343 31.5011C61.554 32.1059 61.5303 32.7114 61.4635 33.3128C61.2291 35.1161 60.6527 36.8569 59.7657 38.4401L58.93 38.1902C59.7212 36.7851 60.277 35.2577 60.5748 33.6698C60.6654 33.0793 60.7098 32.4824 60.7075 31.8849C58.4534 33.0215 56.3536 34.4463 54.46 36.1241C53.9265 36.5882 53.3885 37.0805 52.8462 37.6011L52.2625 37.0121C50.1756 39.7877 55.0127 48.0297 58.93 46.4322Z" fill="white"/>
<path d="M40.7576 67.9722C35.1734 67.9722 30.4203 71.1717 29.9207 75.3797C29.6687 77.1646 30.6679 78.5033 32.1712 78.5033C32.59 78.5169 33.004 78.4102 33.365 78.1954C33.2364 77.8347 33.1706 77.4543 33.1705 77.0709C33.2171 76.2467 33.4452 75.4433 33.8381 74.7192L34.5853 75.0539C34.2433 75.6735 34.0438 76.3629 34.0017 77.0709C34.0017 77.5729 34.1562 78.0625 34.4438 78.4721C34.6802 78.8041 34.9936 79.0725 35.3567 79.2538C35.7198 79.4351 36.1214 79.5237 36.5263 79.5118C36.9195 79.4928 37.3015 79.373 37.6361 79.1638C37.2548 78.5627 37.0608 77.8602 37.079 77.1468C37.0951 76.3896 37.2651 75.6438 37.5786 74.9558L38.4143 75.2949C38.1009 75.8619 37.9294 76.4976 37.9146 77.1468C37.9073 77.6859 38.0614 78.2147 38.3568 78.664C38.5294 78.9224 38.7626 79.1338 39.0356 79.2794C39.3087 79.425 39.6132 79.5002 39.922 79.4984C40.9433 79.4984 42.1327 78.6774 42.8755 77.3074C42.7245 76.9616 42.6275 76.5943 42.5881 76.2186H43.4237C43.4628 76.9003 43.7624 77.5402 44.2594 78.0035H57.7624C53.593 71.5063 46.7575 67.9722 40.7576 67.9722Z" fill="#F6F7F7"/>
<path d="M22.9172 61.9165C18.0138 61.9165 13.19 64.5939 12.5312 69.7479C12.6462 69.8506 12.7567 69.9532 12.8629 70.0648C14.3042 71.6441 15.0948 73.7187 15.0736 75.8658C15.0863 76.5849 14.957 77.2994 14.6933 77.9676H29.6775C29.1807 77.1972 28.9737 76.2727 29.0939 75.3616C29.3901 72.9742 30.8182 70.8992 32.9494 69.4088C33.1749 69.2571 33.3915 69.1054 33.6435 68.9626C32.2287 64.2949 27.5331 61.9165 22.9172 61.9165Z" fill="white"/>
<path d="M18.9996 53.0813C20.1448 53.0813 21.7718 51.5373 23.8013 48.5342C23.6775 48.4226 23.5537 48.3021 23.4387 48.1816C21.2822 49.3809 18.8742 50.0462 16.4131 50.1228C17.2974 52.1219 18.1374 53.0813 18.9996 53.0813Z" fill="#F5B8BA"/>
<path d="M61.0119 69.6548C51.4262 69.6548 49.8434 61.5779 50.595 52.2516C41.5886 50.1587 34.0987 45.509 34.6735 36.7717C33.9218 36.8475 33.2586 36.6646 32.9049 36.1112C32.3611 35.2678 32.7944 34.2861 33.6079 33.5275C32.2107 33.3133 32.0604 32.5994 32.1975 31.1892C32.4125 29.6705 32.538 28.1402 32.5733 26.6064C32.5733 23.4828 29.4783 24.5046 27.5727 25.763C28.7355 27.8648 23.9869 30.7296 22.7356 28.793C22.236 29.2972 20.9671 29.4668 20.1535 29.4668C19.3144 29.4499 18.4814 29.3178 17.6775 29.0741C17.6377 29.1187 17.6024 29.1678 17.567 29.2124L17.399 29.2972C14.9671 29.8782 12.6399 30.8387 10.5016 32.1442C10.873 32.2691 11.2576 32.4119 11.6467 32.5904C15.5641 34.2727 17.567 37.1331 16.4837 39.9979C15.4005 42.6754 12.3983 43.4473 8.22895 41.5955C6.99273 41.0774 5.84986 40.3567 4.84656 39.4625C4.78466 44.2015 8.06977 47.4635 12.0402 48.7397C13.2609 49.1336 14.5345 49.3352 15.8161 49.3377C18.2779 49.3489 20.703 48.7351 22.8683 47.5527C22.5776 47.1368 22.3371 46.6874 22.152 46.214L22.9876 45.9597C23.4363 47.1498 24.3078 48.1289 25.4324 48.7063C26.5569 49.2837 27.8542 49.4181 29.0715 49.0833L29.4076 49.8419C28.5785 50.0995 27.7027 50.1659 26.8448 50.0361C25.987 49.9064 25.1689 49.5838 24.4511 49.0922C22.3377 52.2605 20.5382 53.9607 18.9863 53.9607C17.6598 53.9607 16.5324 52.6755 15.5464 50.1721C14.3045 50.1422 13.0732 49.9334 11.8899 49.5519C11.2046 54.4872 10.9437 58.6551 11.9827 62.1223V62.2071C11.4677 64.3727 11.1408 66.5795 11.0056 68.8025C11.5546 69.0551 12.064 69.3873 12.5177 69.7886C13.1854 64.6212 18.0003 61.9572 22.9036 61.9572C27.5196 61.9572 32.2152 64.3356 33.6212 69.0256C35.7905 67.7628 38.2531 67.1037 40.7573 67.1157C47.0932 67.1157 54.5919 71.0693 58.8454 77.9682H75.2709C72.2909 72.7918 69.9078 69.1416 67.361 66.0983C65.5438 68.499 63.0899 69.6548 61.0119 69.6548Z" fill="#F6F7F7"/>
<path d="M6.912 35.3292C7.82723 35.6639 8.57887 35.5791 8.82647 34.883C9.07849 34.2939 8.57888 33.6201 7.74323 33.2006C6.74399 32.7812 5.97465 32.9508 5.74032 33.6201C5.50599 34.2895 5.91277 34.9053 6.912 35.3292Z" fill="white"/>
<path d="M18.9999 53.081C20.1451 53.081 21.7721 51.537 23.8016 48.5338C23.6778 48.4223 23.554 48.3018 23.439 48.1813C21.2824 49.3806 18.8745 50.0459 16.4134 50.1225C17.2977 52.1216 18.1377 53.081 18.9999 53.081ZM11.9035 49.5111C11.2182 54.4509 10.9573 58.6143 11.9964 62.0816V62.1664C11.4814 64.332 11.1544 66.5388 11.0192 68.7617C11.5682 69.0143 12.0776 69.3466 12.5314 69.7479C12.6463 69.8505 12.7569 69.9532 12.863 70.0647C14.3043 71.6441 15.0949 73.7187 15.0737 75.8658C15.0864 76.5849 14.9572 77.2994 14.6934 77.9676C14.4407 78.609 13.9971 79.1555 13.4238 79.5319C12.8506 79.9083 12.1757 80.0961 11.4923 80.0693C10.8849 80.0935 10.288 79.9042 9.80334 79.5339C9.01416 80.2657 7.97901 80.6676 6.90732 80.6584C6.44864 80.6592 5.99739 80.5415 5.59651 80.3165C5.19562 80.0916 4.85844 79.7668 4.61703 79.3732C4.20895 79.5553 3.76774 79.6495 3.32156 79.6499C1.48667 79.6499 0.226562 78.0524 0.226562 75.6115C0.310569 71.0688 3.32155 68.1236 7.98172 68.1236C8.72984 68.1174 9.47478 68.2226 10.1924 68.436C10.3375 66.3168 10.6584 64.2136 11.1519 62.1485C10.0996 58.5518 10.387 54.1609 11.09 49.2077C6.94711 47.5744 3.57357 43.8261 4.06435 38.5516C3.5617 37.965 3.22661 37.2515 3.09498 36.4874C2.96335 35.7233 3.04015 34.9375 3.31713 34.2141C4.20141 31.9428 6.43423 31.0905 9.50712 31.8134C11.1873 30.6443 14.8128 29.0601 16.9926 28.4131C20.7419 23.7812 25.747 21.425 29.9164 20.2514C33.0114 11.3267 40.6693 0.224365 48.0044 0.224365C52.2578 0.224365 54.7559 4.2628 54.7559 11.2464C54.7559 16.0122 53.5666 21.6615 51.5681 26.7799C52.1563 27.3305 52.7004 27.9274 53.1952 28.5648C57.82 24.8253 66.1057 18.9797 72.7644 18.9797C77.933 18.9797 80.0995 20.8271 80.0995 25.2046C80.0995 34.5399 66.7645 52.3001 59.5443 52.6258C60.8102 54.8495 61.7261 57.2581 62.2591 59.7656C69.0946 65.5667 72.8484 71.8809 76.1821 77.9408H75.2669C72.2868 72.7645 69.9037 69.1143 67.3569 66.0709C66.5478 65.1026 65.721 64.1967 64.85 63.3221C63.7889 62.2511 62.6614 61.2203 61.4278 60.1985C60.8824 57.5066 59.9041 54.9229 58.5318 52.55C57.1258 52.2867 55.9188 51.3496 54.9947 49.9306L55.8303 49.4263C56.7146 51.0462 57.8244 51.7289 59.1729 51.778H59.3277C65.9996 51.778 79.255 34.1115 79.255 25.1913C79.255 21.2376 77.4201 19.8052 72.7511 19.8052C66.371 19.8052 58.1914 25.4947 53.6683 29.2118C53.8982 29.5421 54.1104 29.8857 54.327 30.2382L53.5754 30.6844C52.7634 29.2826 51.7161 28.0339 50.4804 26.994C49.2899 26.0019 47.9722 25.1764 46.563 24.5398L46.9786 23.7008C48.3627 24.3619 49.6618 25.1906 50.8474 26.1685C52.8326 20.9966 53.8982 15.5883 53.8982 11.2464C53.8982 4.76704 51.8113 1.06775 47.9779 1.06775C41.0584 1.06775 33.6392 11.9202 30.6371 20.7557L30.3895 21.0056C24.9334 22.4871 20.6624 25.1689 17.7575 28.9039C17.7226 28.9436 17.6902 28.9853 17.6602 29.0289C17.6204 29.0735 17.5851 29.1226 17.5497 29.1672L17.3817 29.252C14.9497 29.833 12.6226 30.7935 10.4842 32.099C10.8556 32.2239 11.2403 32.3667 11.6294 32.5452C15.5468 34.2275 17.5497 37.0879 16.4664 39.9527C15.3832 42.6302 12.381 43.4021 8.21164 41.5503C6.97543 41.0322 5.83255 40.3115 4.82925 39.4173C4.76735 44.1563 8.05247 47.4183 12.0229 48.6945C13.2436 49.0883 14.5172 49.29 15.7988 49.2925C18.2606 49.3037 20.6857 48.6899 22.851 47.5075C22.5603 47.0916 22.3198 46.6422 22.1347 46.1688L22.9703 45.9144C23.419 47.1046 24.2905 48.0837 25.415 48.6611C26.5396 49.2385 27.8369 49.3729 29.0542 49.0381L29.3902 49.7967C28.5612 50.0543 27.6854 50.1207 26.8275 49.9909C25.9697 49.8612 25.1516 49.5386 24.4338 49.047C22.3204 52.2153 20.5209 53.9155 18.969 53.9155C17.6425 53.9155 16.5151 52.6303 15.5291 50.1269C14.2978 50.0955 13.0772 49.8882 11.9035 49.5111ZM6.91175 35.3297C7.82698 35.6644 8.57862 35.5796 8.82621 34.8835C9.07823 34.2945 8.57862 33.6207 7.74297 33.2012C6.74373 32.7817 5.97439 32.9513 5.74006 33.6207C5.50572 34.29 5.91251 34.9058 6.91175 35.3297ZM11.4968 79.2483C13.2653 79.2483 14.2469 77.9854 14.2469 75.8836C14.2469 73.3535 13.2034 70.3771 10.303 69.3508C9.55999 69.0962 8.77955 68.971 7.99499 68.9804C3.82559 68.9804 1.15947 71.5061 1.07547 75.6293C1.07547 77.4812 1.9907 78.8288 3.32597 78.8288C3.64949 78.8324 3.9707 78.7733 4.27216 78.6548C4.13935 78.2489 4.07362 77.8238 4.07761 77.3964C4.05238 76.9195 4.13706 76.4433 4.32502 76.005C4.51298 75.5668 4.79909 75.1785 5.16085 74.8707L5.74006 75.4597C5.45813 75.6875 5.23578 75.9814 5.09242 76.3159C4.94906 76.6504 4.88906 77.0152 4.91768 77.3785C4.90189 77.9354 5.04458 78.4852 5.32887 78.9627C5.49699 79.2333 5.73239 79.4548 6.01163 79.6051C6.29088 79.7554 6.60425 79.8293 6.92058 79.8195C7.50421 79.8195 8.66262 79.6276 9.28162 78.8957C8.96468 78.3019 8.81196 77.633 8.83948 76.9591C8.81474 76.3174 8.98943 75.6839 9.3391 75.1474L10.1703 75.4017C9.83877 75.8666 9.66365 76.4265 9.67071 76.9992C9.66186 78.4049 10.3295 79.2483 11.4968 79.2483Z" fill="black"/>
<path d="M52.2627 37.0121C54.7132 34.5597 57.5375 32.5198 60.628 30.9701C62.6166 30.0166 64.7519 29.413 66.9418 29.1851C68.4451 29.0156 69.5947 29.1004 70.2756 29.7742L69.6919 30.3632C69.5969 30.2688 69.4842 30.1945 69.3603 30.1445C68.5751 29.9104 67.7455 29.8706 66.9418 30.0285C65.0788 30.2406 63.2585 30.7371 61.5433 31.5011C61.563 32.1059 61.5393 32.7114 61.4725 33.3128C61.2381 35.1161 60.6617 36.8569 59.7747 38.4401L58.939 38.1902C59.7302 36.7851 60.286 35.2577 60.5838 33.6698C60.6744 33.0793 60.7188 32.4824 60.7165 31.8849C58.4624 33.0215 56.3626 34.4463 54.469 36.1241C53.9355 36.5882 53.3975 37.0805 52.8552 37.6011L52.2627 37.0121Z" fill="black"/>
<path d="M32.1713 78.4905C32.5901 78.5041 33.0041 78.3973 33.365 78.1826C33.2364 77.8219 33.1706 77.4414 33.1705 77.0581C33.2172 76.2338 33.4452 75.4305 33.8381 74.7064L34.5854 75.0411C34.2433 75.6607 34.0438 76.35 34.0017 77.0581C34.0017 77.5601 34.1562 78.0497 34.4439 78.4592C34.6802 78.7913 34.9937 79.0597 35.3568 79.2409C35.7199 79.4222 36.1215 79.5108 36.5264 79.499C36.9184 79.484 37.3003 79.3689 37.6361 79.1643C37.2549 78.5633 37.0608 77.8607 37.079 77.1473C37.0951 76.3901 37.2652 75.6444 37.5787 74.9563L38.4143 75.2954C38.1009 75.8625 37.9294 76.4982 37.9147 77.1473C37.9073 77.6864 38.0615 78.2152 38.3568 78.6645C38.5294 78.923 38.7626 79.1343 39.0357 79.2799C39.3087 79.4255 39.6132 79.5007 39.922 79.499C40.9434 79.499 42.1327 78.6779 42.8755 77.308C42.7245 76.9622 42.6276 76.5949 42.5881 76.2191H43.4238C43.4629 76.9009 43.7624 77.5407 44.2594 78.0041H43.4326C42.5218 79.3874 41.2573 80.3602 39.922 80.3602C39.2946 80.3741 38.6819 80.1674 38.1888 79.7756C37.7038 80.1476 37.1133 80.3525 36.5043 80.3602C35.9595 80.3644 35.4219 80.2346 34.9381 79.9819C34.4543 79.7292 34.0388 79.3612 33.7276 78.9099C33.2541 79.188 32.7189 79.3415 32.1713 79.3562C31.6766 79.3613 31.1886 79.2415 30.7515 79.0077C30.3144 78.7739 29.9422 78.4335 29.6687 78.0175C29.1719 77.2471 28.9649 76.3226 29.0851 75.4115C29.3814 73.0241 30.8095 70.9491 32.9406 69.4587C33.1661 69.307 33.3827 69.1552 33.6348 69.0124C35.8015 67.7566 38.2591 67.1022 40.7577 67.1159C47.0936 67.1159 54.5923 71.0696 58.8457 77.9684H57.7625C53.5931 71.489 46.7575 67.9549 40.7577 67.9549C35.1734 67.9549 30.4204 71.1544 29.9208 75.3624C29.6776 77.1473 30.668 78.4905 32.1713 78.4905Z" fill="black"/>
<path d="M34.6696 36.7445C33.918 36.8204 33.2548 36.6374 32.901 36.0841C32.3572 35.2407 32.7905 34.259 33.604 33.5004C33.7146 33.4022 33.8251 33.3085 33.9445 33.2148C35.2709 32.2063 37.2385 31.7735 37.9857 33.0586C38.9407 34.7409 36.531 36.5526 34.6519 36.7445H34.6696Z" fill="black"/>
<path d="M27.5862 25.7351C28.749 27.8368 24.0004 30.7017 22.7492 28.765C21.4979 26.8283 25.9989 23.6333 27.5862 25.7351Z" fill="black"/>
</svg>
